<svg width="21" height="21" viewBox="0 0 21 21" fill="none" xmlns="http://www.w3.org/2000/svg">
<path d="M8.26998 18.7675L6.92834 18.0967H6.92834L8.26998 18.7675ZM6.41978 18.6144L7.85344 18.1733L6.41978 18.6144ZM12.0673 11.6201L11.3965 10.2785L12.0673 11.6201ZM11.6201 12.0673L12.9617 12.7381L11.6201 12.0673ZM18.6144 6.41978L18.1733 7.85344L18.6144 6.41978ZM18.7675 8.26998L19.4384 9.61162L18.7675 8.26998ZM2.8053 1.55543L2.36417 2.9891L2.8053 1.55543ZM1.55543 2.8053L2.9891 2.36417L1.55543 2.8053ZM2.36417 2.9891L18.1733 7.85344L19.0555 4.98611L3.24643 0.121764L2.36417 2.9891ZM18.0967 6.92834L11.3965 10.2785L12.7381 12.9617L19.4384 9.61162L18.0967 6.92834ZM10.2785 11.3965L6.92834 18.0967L9.61162 19.4384L12.9617 12.7381L10.2785 11.3965ZM7.85344 18.1733L2.9891 2.36417L0.121764 3.24642L4.98611 19.0555L7.85344 18.1733ZM6.92834 18.0967C7.13007 17.6933 7.72079 17.7422 7.85344 18.1733L4.98611 19.0555C5.64939 21.2112 8.60298 21.4557 9.61162 19.4384L6.92834 18.0967ZM11.3965 10.2785C10.9127 10.5204 10.5204 10.9127 10.2785 11.3965L12.9617 12.7381C12.9134 12.8349 12.8349 12.9134 12.7381 12.9617L11.3965 10.2785ZM18.1733 7.85344C17.7421 7.72079 17.6933 7.13007 18.0967 6.92834L19.4384 9.61162C21.4556 8.60298 21.2112 5.64939 19.0555 4.98611L18.1733 7.85344ZM3.24643 0.121764C1.32824 -0.468447 -0.468449 1.32823 0.121764 3.24642L2.9891 2.36417C3.10714 2.74781 2.7478 3.10714 2.36417 2.9891L3.24643 0.121764Z" fill="black"/>
</svg>
