<svg xmlns="http://www.w3.org/2000/svg" class="css-16aq35y"><path fill-rule="evenodd" clip-rule="evenodd" d="M12.501 68.0429L48.501 92V8H12.501V68.0429Z" fill="url(#paint100_0_linear)"></path><path fill-rule="evenodd" clip-rule="evenodd" d="M48.501 8L48.501 92L84.501 68L84.501 8.00001L48.501 8Z" fill="#E6E8EA"></path><path d="M74.5 64.6667L48.5 82L22.5 64.6667V18H74.5V64.6667Z" fill="#76808F"></path><path fill-rule="evenodd" clip-rule="evenodd" d="M48.5 32.3333C51.3995 32.3333 53.75 34.6838 53.75 37.5833C53.75 40.4828 51.3995 42.8333 48.5 42.8333C45.6005 42.8333 43.25 40.4828 43.25 37.5833C43.25 34.6838 45.6005 32.3333 48.5 32.3333ZM38 49.8333C38 47.256 40.0893 45.1667 42.6667 45.1667H45L48.5 48.6667L52 45.1667H54.3333C56.9107 45.1667 59 47.256 59 49.8333V54.5H38V49.8333Z" fill="url(#paint100_1_linear)"></path><path d="M3.5 44L6.5 41L9.5 44L6.5 47L3.5 44Z" fill="#76808F"></path><path d="M16.5 42H22.5V46H16.5V42Z" fill="#76808F"></path><rect x="22.5" y="42" width="12" height="4" fill="url(#paint100_2_linear)"></rect><rect x="30.5" y="42" width="4" height="4" fill="white"></rect><path d="M90.5 41L87.5 44L90.5 47L93.5 44L90.5 41Z" fill="#76808F"></path><path d="M80.5 42H74.5V46H80.5V42Z" fill="#76808F"></path><rect width="12" height="4" transform="matrix(-1 0 0 1 74.5 42)" fill="url(#paint100_3_linear)"></rect><rect width="4" height="4" transform="matrix(-1 0 0 1 66.5 42)" fill="white"></rect><defs><linearGradient id="paint100_0_linear" x1="48.501" y1="92" x2="48.501" y2="8" gradientUnits="userSpaceOnUse"><stop stop-color="#FAFAFA"></stop><stop offset="1" stop-color="#E6E8EA"></stop></linearGradient><linearGradient id="paint100_1_linear" x1="48.5" y1="32.3333" x2="48.5" y2="54.5" gradientUnits="userSpaceOnUse"><stop stop-color="#F0B90B"></stop><stop offset="1" stop-color="#F8D33A"></stop></linearGradient><linearGradient id="paint100_2_linear" x1="28.5" y1="42" x2="28.5" y2="46" gradientUnits="userSpaceOnUse"><stop stop-color="#F0B90B"></stop><stop offset="1" stop-color="#F8D33A"></stop></linearGradient><linearGradient id="paint100_3_linear" x1="6" y1="0" x2="6" y2="4" gradientUnits="userSpaceOnUse"><stop stop-color="#F0B90B"></stop><stop offset="1" stop-color="#F8D33A"></stop></linearGradient></defs></svg>